<svg id="Capa_1" enable-background="new 0 0 512 512" height="512" viewBox="0 0 512 512" width="512" xmlns="http://www.w3.org/2000/svg"><g><path d="m512 37.5h-256l-83.047 135 339.047-75z" fill="#ff7149"/><path d="m172.953 37.5h83.047v135h-83.047z" fill="#ff9441"/><path d="m512 97.5h-384l128 302h256z" fill="#ff9441"/><path d="m256 82.5c0-41.355-33.645-75-75-75h-181v392h256z" fill="#ffb739"/><path d="m391 294.5h-135l-80 105 80 105h135z" fill="#ffeac3"/><path d="m121 294.5h135v210h-135z" fill="#fff7e8"/><path d="m271 384.5h-15l-10 15 10 15h15z" fill="#09213d"/><path d="m241 384.5h15v30h-15z" fill="#233952"/><path d="m181 384.5h30v30h-30z" fill="#233952"/><path d="m301 384.5h30v30h-30z" fill="#09213d"/></g></svg>